/* XPM */
static char *pcoin16[] = {
/* columns rows colors chars-per-pixel */
"16 16 20 1 ",
"  c None",
". c #12B8F5",
"X c #13B8F5",
"o c #12B9F5",
"O c #13B9F5",
"+ c #12B8F6",
"@ c #13B8F6",
"# c #12B9F6",
"$ c #13B9F6",
"% c #13B8F7",
"& c #12B9F7",
"* c #13B9F7",
"= c #13BAF6",
"- c #13BAF7",
"; c #14B9F6",
": c #14B9F7",
"> c #22AFE5",
", c #24B0E3",
"< c #24B0E5",
"1 c #24B0E6",
/* pixels */
"                ",
"                ",
"                ",
"   *******      ",
"    *****       ",
"   **           ",
"     ** ****    ",
"   *** *    *   ",
"       * 11     ",
"   *** * 1>     ",
"       *    *   ",
"    *** *  *    ",
"                ",
"                ",
"                ",
"                "
};
