/* XPM */
static char *pcoin32[] = {
/* columns rows colors chars-per-pixel */
"32 32 33 1 ",
"  c None",
". c #12B7F6",
"X c #13B7F6",
"o c #12B8F5",
"O c #13B8F5",
"+ c #13B9F5",
"@ c #12B8F6",
"# c #13B8F6",
"$ c #12B9F6",
"% c #13B9F6",
"& c #12B8F7",
"* c #13B8F7",
"= c #12B9F7",
"- c #13B9F7",
"; c #13BAF6",
": c #13BAF7",
"> c #14B9F6",
", c #14B8F7",
"< c #14B9F7",
"1 c #12B9F8",
"2 c #23AFE3",
"3 c #24AFE3",
"4 c #23AFE4",
"5 c #23AEE5",
"6 c #23AFE5",
"7 c #24AFE5",
"8 c #22B0E3",
"9 c #23B0E5",
"0 c #23B0E6",
"q c #23B1E7",
"w c #24B0E4",
"e c #24B0E5",
"r c #24B1E5",
/* pixels */
"                                ",
"                                ",
"                                ",
"                                ",
"                                ",
"           :::::                ",
"       X::::::::::::            ",
"      :::::::::::::::           ",
"       :::::::::::::            ",
"          :::::::               ",
"      ::           ::           ",
"      ::::::::::X               ",
"        :::::::  :::::::        ",
"                ::     ::       ",
"      ::::     ::       ::      ",
"       :::::: ::   888   :X     ",
"        ::::  :   88 88  ::     ",
"              :  833 88   :     ",
"       :::::  :   83388   :     ",
"       :::::  :   3388    :     ",
"          ::: ::   3     ::     ",
"       :       :   3    ::      ",
"       ::::::: ::      :::      ",
"        ::::::: ::::X1:::       ",
"                  ::::1         ",
"                                ",
"                                ",
"                                ",
"                                ",
"                                ",
"                                ",
"                                "
};
