/* XPM */
static char *pcoin64[] = {
/* columns rows colors chars-per-pixel */
"64 64 40 1 ",
"  c None",
". c #13B7F6",
"X c #12B8F5",
"o c #12B9F5",
"O c #13B9F5",
"+ c #12B8F6",
"@ c #13B8F6",
"# c #12B9F6",
"$ c #13B9F6",
"% c #12B8F7",
"& c #13B8F7",
"* c #12B9F7",
"= c #13B9F7",
"- c #13BAF6",
"; c #13BAF7",
": c #14B8F5",
"> c #14B9F6",
", c #14B8F7",
"< c #14B9F7",
"1 c #14B9F8",
"2 c #23ADE5",
"3 c #23AFE4",
"4 c #22AFE5",
"5 c #23AFE5",
"6 c #23AFE6",
"7 c #24AEE4",
"8 c #24AFE4",
"9 c #24AEE5",
"0 c #24AFE5",
"q c #23B0E3",
"w c #23B0E4",
"e c #23B0E5",
"r c #23B1E5",
"t c #23B0E6",
"y c #24B0E4",
"u c #25B1E4",
"i c #24B0E5",
"p c #25B0E5",
"a c #24B1E5",
"s c #24B0E6",
/* pixels */
"                                                                ",
"                                                                ",
"                                                                ",
"                                                                ",
"                                                                ",
"                                                                ",
"                                                                ",
"                                                                ",
"                                                                ",
"                                                                ",
"                                                                ",
"                  ++++++++++++++++++                            ",
"               ++++++++++++++++++++++++                         ",
"             ++++++++++++++++++++++++++++                       ",
"             ++++++++++++++++++++++++++++                       ",
"            ++++++++++++++++++++++++++++++                      ",
"             ++++++++++++++++++++++++++++                       ",
"              ++++++++++++++++++++++++++                        ",
"                 +++++++++++++++++++++                          ",
"                     1+++++++++++        +                      ",
"            1++                        +++                      ",
"            1++++++                +++++++                      ",
"            1++++++++++++++++++++++                             ",
"             +++++++++++++++++++     +++++++                    ",
"              +++++++++++++++++    ++++++++++++                 ",
"                +++++++++++++    ++++++++++++++++               ",
"                    .+++++++    ++++++     +++++++              ",
"             +                 +++++          +++++             ",
"             +++++            ++++             +++++            ",
"             +++++++++++++   ++++               ++++            ",
"             +++++++++++++   +++      ttttt3     ++++           ",
"              +++++++++++   ++++   3 ttttttt3     +++           ",
"               ++++++++++   +++   3tttttttttt     .+++          ",
"                  +++++++   +++   3ttt3   tttt     +++          ",
"             +             ++++    ttt3    ttt     +++          ",
"             +++           +++     ttt3   tttt     +++          ",
"             +++++++       +++      t33t tttt      +++          ",
"             ++++++++++++  +++      33tt3tttt      +++          ",
"             ++++++++++++  ++++     t333tttt       +++          ",
"               ++++++++++   +++      tt3tt         +++          ",
"                 ++++++++   +++      t3t          ++++          ",
"                     +++++  ++++      tt          +++           ",
"             +++             +++      3t3        ++++           ",
"             ++++++          ++++     t33       ++++            ",
"             ++++++++++++++   ++++             +++++            ",
"             +++++++++++++++   +++++          +++++             ",
"              +++++++++++++++   ++++++     +++++++              ",
"                ++++++++++++++   ++++++++++++++++               ",
"                    +++++++++++    ++++++++++++                 ",
"                                     +++++++                    ",
"                                                                ",
"                                                                ",
"                                                                ",
"                                                                ",
"                                                                ",
"                                                                ",
"                                                                ",
"                                                                ",
"                                                                ",
"                                                                ",
"                                                                ",
"                                                                ",
"                                                                ",
"                                                                "
};
