/* XPM */
static char *pcoin128[] = {
/* columns rows colors chars-per-pixel */
"128 128 54 1 ",
"  c None",
". c #12B7F6",
"X c #13B7F6",
"o c #12B8F5",
"O c #13B8F5",
"+ c #12B9F5",
"@ c #13B9F5",
"# c #12B8F6",
"$ c #13B8F6",
"% c #12B9F6",
"& c #13B9F6",
"* c #12B8F7",
"= c #13B8F7",
"- c #12B9F7",
"; c #13B9F7",
": c #13BAF6",
"> c #13BAF7",
", c #14B8F5",
"< c #14B9F6",
"1 c #14B8F7",
"2 c #14B9F7",
"3 c #12B9F8",
"4 c #14B9F8",
"5 c #22ACE2",
"6 c #24AEE3",
"7 c #21AFE4",
"8 c #23AEE4",
"9 c #22AFE4",
"0 c #23AFE4",
"q c #22AFE5",
"w c #23AFE5",
"e c #23AFE6",
"r c #24AFE4",
"t c #24AFE5",
"y c #24AFE6",
"u c #23AEE8",
"i c #22B0E3",
"p c #23B0E4",
"a c #22B0E5",
"s c #23B0E5",
"d c #22B1E5",
"f c #23B1E5",
"g c #22B0E6",
"h c #23B0E6",
"j c #23B1E6",
"k c #24B0E4",
"l c #25B1E4",
"z c #24B0E5",
"x c #24B1E5",
"c c #25B1E5",
"v c #24B2E5",
"b c #24B0E6",
"n c #25B0E6",
"m c #24B1E6",
/* pixels */
"                                                                                                                                ",
"                                                                                                                                ",
"                                                                                                                                ",
"                                                                                                                                ",
"                                                                                                                                ",
"                                                                                                                                ",
"                                                                                                                                ",
"                                                                                                                                ",
"                                                                                                                                ",
"                                                                                                                                ",
"                                                                                                                                ",
"                                                                                                                                ",
"                                                                                                                                ",
"                                                                                                                                ",
"                                                                                                                                ",
"                                                                                                                                ",
"                                                                                                                                ",
"                                                                                                                                ",
"                                                                                                                                ",
"                                                                                                                                ",
"                                                                                                                                ",
"                                            >>>>>>>>>>>>>>>>>>>>                                                                ",
"                                      >>>>>>>>>>>>>>>>>>>>>>>>>>>>>>>>                                                          ",
"                                  >>>>>>>>>>>>>>>>>>>>>>>>>>>>>>>>>>>>>>>>                                                      ",
"                               4>>>>>>>>>>>>>>>>>>>>>>>>>>>>>>>>>>>>>>>>>>>>>                                                   ",
"                             >>>>>>>>>>>>>>>>>>>>>>>>>>>>>>>>>>>>>>>>>>>>>>>>>>                                                 ",
"                           >>>>>>>>>>>>>>>>>>>>>>>>>>>>>>>>>>>>>>>>>>>>>>>>>>>>>>                                               ",
"                          >>>>>>>>>>>>>>>>>>>>>>>>>>>>>>>>>>>>>>>>>>>>>>>>>>>>>>>>                                              ",
"                         >>>>>>>>>>>>>>>>>>>>>>>>>>>>>>>>>>>>>>>>>>>>>>>>>>>>>>>>>>                                             ",
"                         >>>>>>>>>>>>>>>>>>>>>>>>>>>>>>>>>>>>>>>>>>>>>>>>>>>>>>>>>>                                             ",
"                         >>>>>>>>>>>>>>>>>>>>>>>>>>>>>>>>>>>>>>>>>>>>>>>>>>>>>>>>>>4                                            ",
"                         >>>>>>>>>>>>>>>>>>>>>>>>>>>>>>>>>>>>>>>>>>>>>>>>>>>>>>>>>>                                             ",
"                         >>>>>>>>>>>>>>>>>>>>>>>>>>>>>>>>>>>>>>>>>>>>>>>>>>>>>>>>>>                                             ",
"                          >>>>>>>>>>>>>>>>>>>>>>>>>>>>>>>>>>>>>>>>>>>>>>>>>>>>>>>>                                              ",
"                           4>>>>>>>>>>>>>>>>>>>>>>>>>>>>>>>>>>>>>>>>>>>>>>>>>>>>>                                               ",
"                             >>>>>>>>>>>>>>>>>>>>>>>>>>>>>>>>>>>>>>>>>>>>>>>>>>                                                 ",
"                                >>>>>>>>>>>>>>>>>>>>>>>>>>>>>>>>>>>>>>>>>>>>>                                                   ",
"                                  X>>>>>>>>>>>>>>>>>>>>>>>>>>>>>>>>>>>>>>>                                                      ",
"                                      >>>>>>>>>>>>>>>>>>>>>>>>>>>>>>>>                                                          ",
"                         >>                  >>>>>>>>>>>>>>>XXX                   >>                                            ",
"                         >>>>                                                  >>>>>                                            ",
"                         >>>>>>>                                             >>>>>>>                                            ",
"                         >>>>>>>>>>                                      >>>>>>>>>>>                                            ",
"                         >>>>>>>>>>>>>X>>                          >>>>>>>>>>>>>>>>>                                            ",
"                         >>>>>>>>>>>>>>>>>>>>>>>>>>>>>>>>>>>>>>>>>>>>>>>                                                        ",
"                         >>>>>>>>>>>>>>>>>>>>>>>>>>>>>>>>>>>>>>>>>>>                                                            ",
"                         >>>>>>>>>>>>>>>>>>>>>>>>>>>>>>>>>>>>>>>>>          X>>>>>>>>>>                                         ",
"                          >>>>>>>>>>>>>>>>>>>>>>>>>>>>>>>>>>>>>>         >>>>>>>>>>>>>>>>>>                                     ",
"                           >>>>>>>>>>>>>>>>>>>>>>>>>>>>>>>>>>>        >>>>>>>>>>>>>>>>>>>>>>>                                   ",
"                            >>>>>>>>>>>>>>>>>>>>>>>>>>>>>>>>>       >>>>>>>>>>>>>>>>>>>>>>>>>>>                                 ",
"                              >>>>>>>>>>>>>>>>>>>>>>>>>>>>>       >>>>>>>>>>>>>>>>>>>>>>>>>>>>>>>                               ",
"                                 >>>>>>>>>>>>>>>>>>>>>>>>>       X>>>>>>>>>>>>>>>>>>>>>>>>>>>>>>>>                              ",
"                                     >>>>>>>>>>>>>>>>>>>>       >>>>>>>>>>>>>>>>X>>>>>>>>>>>>>>>>>>>                            ",
"                         >                >>>>>>>>>>>>>>       >>>>>>>>>>>>             >>>>>>>>>>>>>                           ",
"                         >>>                                  >>>>>>>>>>>                  >>>>>>>>>>>                          ",
"                         >>>>>>                              >>>>>>>>>>                     >>>>>>>>>>>                         ",
"                         >>>>>>>>>                          >>>>>>>>>                         >>>>>>>>>                         ",
"                         >>>>>>>>>>>>>                     >>>>>>>>>                           >>>>>>>>>                        ",
"                         >>>>>>>>>>>>>>>>>XX>              >>>>>>>>                             >>>>>>>>>                       ",
"                         >>>>>>>>>>>>>>>>>>>>>>>>>>>>     >>>>>>>>             wkkkk             >>>>>>>>                       ",
"                         >>>>>>>>>>>>>>>>>>>>>>>>>>>     >>>>>>>>           kkkkkkkkkkk           >>>>>>>>                      ",
"                          >>>>>>>>>>>>>>>>>>>>>>>>>      >>>>>>>           kkkkkkkkkkkkk           >>>>>>>                      ",
"                          4>>>>>>>>>>>>>>>>>>>>>>>>     >>>>>>>>       u  wkkkkkkkkkkkkkk           >>>>>>>                     ",
"                            X>>>>>>>>>>>>>>>>>>>>>>     >>>>>>>      wkwkkkkkkkkkkkkkkkkkk          >>>>>>>                     ",
"                             >>>>>>>>>>>>>>>>>>>>>      >>>>>>>     kkkwkkwkkkkkkkkkkkkkkk           >>>>>>>                    ",
"                               4>>>>>>>>>>>>>>>>>>     >>>>>>>      kkkkkkkkkkkk   kkkkkkkk          >>>>>>>                    ",
"                                  >>>>>>>>>>>>>>>>     >>>>>>X       kkkwkwkkkk     kkkkkkk          4>>>>>>                    ",
"                                      >>>>>>>>>>>      >>>>>>>       wwkkkkwwk       kkkkkk           >>>>>>                    ",
"                          >                >>>>>>      >>>>>>        wkkkkwkww       wkkkkk           >>>>>>X                   ",
"                          >>4                          >>>>>>         wkkwwkkk       wkkkkkk          >>>>>>>                   ",
"                          >>>>>                       >>>>>>>         wwkkkkkk       kkkkkk           >>>>>>>                   ",
"                          >>>>>>>>                    >>>>>>>          kkkkkwk       kkkkkk           4>>>>>>                   ",
"                          >>>>>>>>>>X>>               >>>>>>>          kkkkkkkk     kkkkkkk           >>>>>>>                   ",
"                          >>>>>>>>>>>>>>>>>>>>        >>>>>>>          wkkkwkkkkkkkkkkkkkkk           >>>>>>>                   ",
"                          >>>>>>>>>>>>>>>>>>>>>>>     >>>>>>>           wwkwkkkkkkkkkkkkkk            4>>>>>>                   ",
"                          >>>>>>>>>>>>>>>>>>>>>>>     >>>>>>>           wwkkkwwkkkkkkkkkk             >>>>>>>                   ",
"                          >>>>>>>>>>>>>>>>>>>>>>>X     >>>>>>            kkkkkwkkkkkkkkkw             >>>>>>>                   ",
"                           >>>>>>>>>>>>>>>>>>>>>>>     >>>>>>            kkkkwkkkkkkkkk               >>>>>>>                   ",
"                            >>>>>>>>>>>>>>>>>>>>>>     >>>>>>>           wkkkwwkwkkkkk                >>>>>>                    ",
"                              >>>>>>>>>>>>>>>>>>>>     >>>>>>>            kwkkwk                     >>>>>>>                    ",
"                                >>>>>>>>>>>>>>>>>>     >>>>>>>            kkkkwk                     >>>>>>>                    ",
"                                   >>>>>>>>>>>>>>>>     >>>>>>>            wwkkk                     >>>>>>>                    ",
"                                      >>>>>>>>>>>>>     >>>>>>>            wwkkk                    >>>>>>>                     ",
"                          >>                >>>>>>>     >>>>>>>>           kwkkww                   >>>>>>>                     ",
"                          >>>>                           >>>>>>>            kkkkk                  >>>>>>>                      ",
"                          >>>>>>>                        >>>>>>>>           kkkkkw                >>>>>>>>                      ",
"                          >>>>>>>>>>>                     >>>>>>>>           kkwkw               >>>>>>>>                       ",
"                          >>>>>>>>>>>>>X>>                 >>>>>>>>          kkww               >>>>>>>>>                       ",
"                          >>>>>>>>>>>>>>>>>>>>>>>>>>>>     >>>>>>>>>          k                >>>>>>>>>                        ",
"                          >>>>>>>>>>>>>>>>>>>>>>>>>>>>      >>>>>>>>>                         >>>>>>>>>                         ",
"                          >>>>>>>>>>>>>>>>>>>>>>>>>>>>>      >>>>>>>>>>                     >>>>>>>>>>>                         ",
"                           >>>>>>>>>>>>>>>>>>>>>>>>>>>>>      >>>>>>>>>>>                  >>>>>>>>>>>                          ",
"                            >>>>>>>>>>>>>>>>>>>>>>>>>>>>>      >>>>>>>>>>>>             >>>>>>>>>>>>>                           ",
"                             >>>>>>>>>>>>>>>>>>>>>>>>>>>>>      >>>>>>>>>>>>>>>>4>>>>>>>>>>>>>>>>>>>                            ",
"                               >>>>>>>>>>>>>>>>>>>>>>>>>>>>      X>>>>>>>>>>>>>>>>>>>>>>>>>>>>>>>>                              ",
"                                  >>>>>>>>>>>>>>>>>>>>>>>>>>      >>>>>>>>>>>>>>>>>>>>>>>>>>>>>>>                               ",
"                                     >>>>>>>>>>>>>>>>>>>>>>>>       >>>>>>>>>>>>>>>>>>>>>>>>>>>                                 ",
"                                           >>>>>>>>>>>>>>>>>>>>       >>>>>>>>>>>>>>>>>>>>>>>                                   ",
"                                                                         >>>>>>>>>>>>>>>>>>                                     ",
"                                                                            >>>>>>>>>>>                                         ",
"                                                                                                                                ",
"                                                                                                                                ",
"                                                                                                                                ",
"                                                                                                                                ",
"                                                                                                                                ",
"                                                                                                                                ",
"                                                                                                                                ",
"                                                                                                                                ",
"                                                                                                                                ",
"                                                                                                                                ",
"                                                                                                                                ",
"                                                                                                                                ",
"                                                                                                                                ",
"                                                                                                                                ",
"                                                                                                                                ",
"                                                                                                                                ",
"                                                                                                                                ",
"                                                                                                                                ",
"                                                                                                                                ",
"                                                                                                                                ",
"                                                                                                                                ",
"                                                                                                                                ",
"                                                                                                                                ",
"                                                                                                                                ",
"                                                                                                                                ",
"                                                                                                                                ",
"                                                                                                                                ",
"                                                                                                                                "
};
