<svg data-v-423bf9ae="" xmlns="http://www.w3.org/2000/svg" viewBox="0 0 234.01108077823696 163" class="iconAbove"><!----><!----><!----><g data-v-423bf9ae="" id="0cb70d36-0f9d-417a-8ca8-c1aa5f73e4ff" fill="white" transform="matrix(5.545286174111833,0,0,5.545286174111833,-2.329017979270091,80.87430692031691)"><path d="M0.42 14.43L0.42 14.43L0.42 14.01L0.42 14.01Q0.42 13.80 0.63 13.80L0.63 13.80L0.72 13.80L0.72 13.80Q1.67 13.75 1.67 12.47L1.67 12.47L1.67 6.32L1.67 6.32Q1.67 4.98 0.66 4.98L0.66 4.98L0.64 4.98L0.64 4.98Q0.43 4.98 0.43 4.77L0.43 4.77L0.43 4.35L0.43 4.35Q0.43 4.14 0.64 4.14L0.64 4.14L5.78 4.14L5.78 4.14Q6.61 4.14 7.32 4.40L7.32 4.40L7.32 4.40Q8.03 4.66 8.51 5.09L8.51 5.09L8.51 5.09Q8.98 5.52 9.25 6.08L9.25 6.08L9.25 6.08Q9.52 6.64 9.52 7.24L9.52 7.24L9.52 7.24Q9.52 7.79 9.37 8.26L9.37 8.26L9.37 8.26Q9.23 8.72 8.89 9.13L8.89 9.13L8.89 9.13Q8.55 9.54 8.03 9.82L8.03 9.82L8.03 9.82Q7.51 10.10 6.73 10.26L6.73 10.26L6.73 10.26Q5.95 10.42 4.95 10.42L4.95 10.42L3.90 10.42L3.90 12.47L3.90 12.47Q3.90 13.75 4.85 13.80L4.85 13.80L4.94 13.80L4.94 13.80Q5.15 13.80 5.15 14.01L5.15 14.01L5.15 14.43L5.15 14.43Q5.15 14.64 4.94 14.64L4.94 14.64L0.63 14.64L0.63 14.64Q0.42 14.64 0.42 14.43ZM3.82 4.98L3.82 9.43L4.72 9.43L4.72 9.43Q6.13 9.43 6.77 8.91L6.77 8.91L6.77 8.91Q7.42 8.39 7.42 7.24L7.42 7.24L7.42 7.24Q7.42 6.25 6.81 5.62L6.81 5.62L6.81 5.62Q6.21 4.98 5.17 4.98L5.17 4.98L3.82 4.98ZM10.18 9.50L10.18 9.50L10.18 9.50Q10.18 8.98 10.25 8.46L10.25 8.46L10.25 8.46Q10.32 7.94 10.50 7.39L10.50 7.39L10.50 7.39Q10.68 6.84 10.94 6.35L10.94 6.35L10.94 6.35Q11.20 5.87 11.62 5.42L11.62 5.42L11.62 5.42Q12.03 4.98 12.55 4.67L12.55 4.67L12.55 4.67Q13.07 4.35 13.78 4.17L13.78 4.17L13.78 4.17Q14.50 3.99 15.33 3.99L15.33 3.99L15.33 3.99Q16.05 3.99 16.72 4.16L16.72 4.16L16.72 4.16Q17.40 4.33 17.99 4.67L17.99 4.67L17.99 4.67Q18.59 5.02 19.02 5.60L19.02 5.60L19.02 5.60Q19.45 6.17 19.61 6.92L19.61 6.92L19.63 7.01L19.63 7.01Q19.63 7.22 19.38 7.28L19.38 7.28L17.59 7.90L17.59 7.90Q17.47 7.94 17.41 7.94L17.41 7.94L17.41 7.94Q17.23 7.94 17.25 7.79L17.25 7.79L17.27 7.58L17.29 7.33L17.29 7.33Q17.29 7.01 17.23 6.71L17.23 6.71L17.23 6.71Q17.17 6.41 17.02 6.11L17.02 6.11L17.02 6.11Q16.87 5.81 16.64 5.59L16.64 5.59L16.64 5.59Q16.41 5.37 16.05 5.23L16.05 5.23L16.05 5.23Q15.68 5.09 15.22 5.09L15.22 5.09L15.22 5.09Q14.75 5.09 14.34 5.26L14.34 5.26L14.34 5.26Q13.93 5.43 13.65 5.73L13.65 5.73L13.65 5.73Q13.36 6.02 13.15 6.40L13.15 6.40L13.15 6.40Q12.94 6.77 12.82 7.21L12.82 7.21L12.82 7.21Q12.69 7.65 12.63 8.07L12.63 8.07L12.63 8.07Q12.57 8.48 12.57 8.89L12.57 8.89L12.57 8.89Q12.57 10.28 12.89 11.29L12.89 11.29L12.89 11.29Q13.21 12.30 13.90 12.88L13.90 12.88L13.90 12.88Q14.59 13.47 15.61 13.47L15.61 13.47L15.61 13.47Q16.20 13.47 16.71 13.32L16.71 13.32L16.71 13.32Q17.22 13.18 17.57 12.96L17.57 12.96L17.57 12.96Q17.92 12.74 18.21 12.42L18.21 12.42L18.21 12.42Q18.50 12.10 18.67 11.82L18.67 11.82L18.67 11.82Q18.84 11.53 19.00 11.19L19.00 11.19L19.00 11.19Q19.08 11.01 19.24 11.01L19.24 11.01L19.24 11.01Q19.32 11.01 19.41 11.06L19.41 11.06L19.91 11.29L19.91 11.29Q20.03 11.34 20.07 11.40L20.07 11.40L20.07 11.40Q20.12 11.46 20.07 11.57L20.07 11.57L20.07 11.57Q19.88 12.04 19.62 12.47L19.62 12.47L19.62 12.47Q19.35 12.89 18.94 13.33L18.94 13.33L18.94 13.33Q18.53 13.76 18.03 14.07L18.03 14.07L18.03 14.07Q17.54 14.38 16.85 14.58L16.85 14.58L16.85 14.58Q16.17 14.78 15.39 14.78L15.39 14.78L15.39 14.78Q14.15 14.78 13.16 14.38L13.16 14.38L13.16 14.38Q12.16 13.98 11.52 13.27L11.52 13.27L11.52 13.27Q10.87 12.56 10.52 11.60L10.52 11.60L10.52 11.60Q10.18 10.64 10.18 9.50ZM20.71 11.07L20.71 11.07L20.71 11.07Q20.71 10.01 21.27 9.11L21.27 9.11L21.27 9.11Q21.83 8.20 22.80 7.77L22.80 7.77L22.80 7.77Q23.47 7.47 24.22 7.47L24.22 7.47L24.22 7.47Q25.28 7.47 26.20 8.07L26.20 8.07L26.20 8.07Q27.12 8.66 27.58 9.69L27.58 9.69L27.58 9.69Q27.90 10.41 27.90 11.22L27.90 11.22L27.90 11.22Q27.90 12.28 27.34 13.17L27.34 13.17L27.34 13.17Q26.78 14.07 25.81 14.51L25.81 14.51L25.81 14.51Q25.12 14.81 24.38 14.81L24.38 14.81L24.38 14.81Q23.32 14.81 22.40 14.22L22.40 14.22L22.40 14.22Q21.49 13.62 21.03 12.60L21.03 12.60L21.03 12.60Q20.71 11.87 20.71 11.07ZM22.38 10.19L22.38 10.19L22.38 10.19Q22.38 10.96 22.77 11.83L22.77 11.83L22.77 11.83Q23.13 12.63 23.67 13.16L23.67 13.16L23.67 13.16Q24.21 13.69 24.82 13.69L24.82 13.69L24.82 13.69Q25.09 13.69 25.38 13.57L25.38 13.57L25.38 13.57Q26.23 13.20 26.23 12.09L26.23 12.09L26.23 12.09Q26.23 11.33 25.84 10.46L25.84 10.46L25.84 10.46Q25.48 9.65 24.93 9.12L24.93 9.12L24.93 9.12Q24.39 8.59 23.78 8.59L23.78 8.59L23.78 8.59Q23.51 8.59 23.22 8.72L23.22 8.72L23.22 8.72Q22.38 9.08 22.38 10.19ZM28.39 14.43L28.39 14.43L28.39 14.01L28.39 14.01Q28.39 13.80 28.60 13.80L28.60 13.80L28.62 13.80L28.62 13.80Q29.12 13.79 29.39 13.43L29.39 13.43L29.39 13.43Q29.64 13.07 29.64 12.52L29.64 12.52L29.64 12.52Q29.64 12.50 29.64 12.47L29.64 12.47L29.64 10.99L29.64 10.99Q29.64 10.70 29.62 10.49L29.62 10.49L29.62 10.49Q29.59 10.29 29.52 10.05L29.52 10.05L29.52 10.05Q29.44 9.81 29.26 9.67L29.26 9.67L29.26 9.67Q29.09 9.53 28.81 9.50L28.81 9.50L28.81 9.50Q28.64 9.48 28.65 9.32L28.65 9.32L28.65 8.85L28.65 8.85Q28.65 8.76 28.69 8.73L28.69 8.73L28.69 8.73Q28.74 8.70 28.85 8.66L28.85 8.66L28.85 8.66Q30.65 8.06 31.42 7.24L31.42 7.24L31.42 7.24Q31.46 7.21 31.49 7.21L31.49 7.21L31.52 7.21L31.52 7.21Q31.53 7.21 31.55 7.23L31.55 7.23L31.55 12.47L31.55 12.47Q31.55 13.06 31.81 13.43L31.81 13.43L31.81 13.43Q32.08 13.80 32.58 13.80L32.58 13.80L32.61 13.80L32.61 13.80Q32.83 13.80 32.83 14.01L32.83 14.01L32.83 14.43L32.83 14.43Q32.83 14.53 32.76 14.59L32.76 14.59L32.76 14.59Q32.69 14.64 32.59 14.64L32.59 14.64L28.63 14.64L28.63 14.64Q28.53 14.64 28.46 14.59L28.46 14.59L28.46 14.59Q28.39 14.53 28.39 14.43ZM29.52 5.33L29.52 5.33L29.52 5.33Q29.52 4.98 29.87 4.63L29.87 4.63L29.87 4.63Q30.21 4.29 30.57 4.29L30.57 4.29L30.57 4.29Q30.92 4.29 31.27 4.63L31.27 4.63L31.27 4.63Q31.62 4.99 31.62 5.33L31.62 5.33L31.62 5.33Q31.62 5.68 31.27 6.04L31.27 6.04L31.27 6.04Q30.92 6.38 30.57 6.38L30.57 6.38L30.57 6.38Q30.21 6.38 29.87 6.04L29.87 6.04L29.87 6.04Q29.52 5.69 29.52 5.33ZM33.41 14.43L33.41 14.43L33.41 14.01L33.41 14.01Q33.41 13.80 33.62 13.80L33.62 13.80L33.65 13.80L33.65 13.80Q34.15 13.80 34.41 13.43L34.41 13.43L34.41 13.43Q34.67 13.06 34.67 12.47L34.67 12.47L34.67 10.71L34.67 10.71Q34.67 10.37 34.65 10.14L34.65 10.14L34.65 10.14Q34.62 9.92 34.55 9.67L34.55 9.67L34.55 9.67Q34.47 9.41 34.30 9.27L34.30 9.27L34.30 9.27Q34.12 9.13 33.84 9.10L33.84 9.10L33.84 9.10Q33.67 9.08 33.68 8.92L33.68 8.92L33.68 8.44L33.68 8.44Q33.68 8.29 33.88 8.26L33.88 8.26L33.88 8.26Q34.77 8.11 35.53 7.81L35.53 7.81L35.53 7.81Q36.29 7.50 36.65 7.24L36.65 7.24L36.65 7.24Q36.70 7.21 36.72 7.21L36.72 7.21L36.75 7.21L36.75 7.21Q36.76 7.21 36.76 7.23L36.76 7.23L36.52 9.06L36.52 9.06Q37.52 7.46 38.94 7.46L38.94 7.46L38.94 7.46Q39.52 7.46 39.95 7.62L39.95 7.62L39.95 7.62Q40.39 7.77 40.64 8.02L40.64 8.02L40.64 8.02Q40.90 8.27 41.05 8.64L41.05 8.64L41.05 8.64Q41.21 9.00 41.26 9.37L41.26 9.37L41.26 9.37Q41.32 9.73 41.32 10.17L41.32 10.17L41.32 12.47L41.32 12.47Q41.32 13.06 41.58 13.43L41.58 13.43L41.58 13.43Q41.85 13.80 42.35 13.80L42.35 13.80L42.41 13.80L42.41 13.80Q42.62 13.80 42.62 14.01L42.62 14.01L42.62 14.43L42.62 14.43Q42.62 14.64 42.41 14.64L42.41 14.64L38.61 14.64L38.61 14.64Q38.40 14.64 38.40 14.43L38.40 14.43L38.40 14.01L38.40 14.01Q38.40 13.80 38.62 13.80L38.62 13.80L38.62 13.80Q39.00 13.81 39.18 13.44L39.18 13.44L39.18 13.44Q39.35 13.10 39.35 12.55L39.35 12.55L39.35 12.55Q39.35 12.51 39.35 12.47L39.35 12.47L39.35 10.36L39.35 10.36Q39.35 10.32 39.35 10.25L39.35 10.25L39.35 10.25Q39.35 10.04 39.35 9.92L39.35 9.92L39.35 9.92Q39.35 9.81 39.33 9.62L39.33 9.62L39.33 9.62Q39.31 9.43 39.28 9.32L39.28 9.32L39.28 9.32Q39.25 9.21 39.17 9.08L39.17 9.08L39.17 9.08Q39.09 8.94 38.99 8.87L38.99 8.87L38.99 8.87Q38.88 8.80 38.72 8.75L38.72 8.75L38.72 8.75Q38.55 8.70 38.34 8.70L38.34 8.70L38.34 8.70Q37.84 8.70 37.33 9.06L37.33 9.06L37.33 9.06Q36.83 9.43 36.64 9.89L36.64 9.89L36.64 12.47L36.64 12.47Q36.64 13.06 36.91 13.43L36.91 13.43L36.91 13.43Q37.17 13.80 37.67 13.80L37.67 13.80L37.70 13.80L37.70 13.80Q37.91 13.80 37.91 14.01L37.91 14.01L37.91 14.43L37.91 14.43Q37.91 14.64 37.69 14.64L37.69 14.64L33.62 14.64L33.62 14.64Q33.41 14.64 33.41 14.43Z"></path></g><!----><g data-v-423bf9ae="" id="4472a349-52c4-4e0d-8d94-fd1ffc384d39" transform="matrix(1,0,0,1,68,-5)" stroke="none" fill="white"><path d="M50 5C25.147 5 5 25.147 5 50s20.147 45 45 45 45-20.147 45-45S74.853 5 50 5zm0 80c-20.711 0-37.5-16.788-37.5-37.5C12.5 26.789 29.289 10 50 10c20.712 0 37.5 16.789 37.5 37.5C87.5 68.212 70.712 85 50 85z"></path><path d="M50 12.5c-19.33 0-35 15.67-35 35s15.67 35 35 35 35-15.67 35-35-15.67-35-35-35zm0 68.541c-18.524 0-33.542-15.017-33.542-33.541 0-18.524 15.018-33.542 33.542-33.542S83.541 28.976 83.541 47.5 68.524 81.041 50 81.041z"></path><path d="M69.984 28.774c-1.155-2.157-2.757-3.936-4.8-5.338-1.75-1.207-3.768-2.082-6.059-2.624-2.292-.541-5.06-.812-8.311-.812H37v28.257h-5v6.233h5v3.117h-5v6.233h5V75h7.312V63.841H57v-6.233H44.312v-3.11h6.205c3.918 0 7.156-.479 9.719-1.437 2.558-.962 4.788-2.376 6.684-4.249 1.502-1.502 2.679-3.32 3.528-5.449.851-2.129 1.27-4.388 1.27-6.777 0-3.054-.574-5.658-1.734-7.812zM63.373 41.35c-.491 1.307-1.282 2.513-2.363 3.62-1.204 1.232-2.724 2.088-4.547 2.565-1.822.481-4.207.721-7.163.721H44.312V26.28h6.059c2.291 0 4.204.16 5.745.48 1.539.32 2.889.862 4.042 1.624 1.331.887 2.32 2.033 2.979 3.436.65 1.403.977 3.055.977 4.949-.001 1.751-.249 3.275-.741 4.581z"></path></g><!----></svg>