<?xml version="1.0" encoding="UTF-8" standalone="no"?>
<!-- Created with Inkscape (http://www.inkscape.org/) -->

<svg
   width="50"
   height="50"
   viewBox="0 0 50 50"
   version="1.1"
   id="svg3367"
   xml:space="preserve"
   sodipodi:docname="img-nav-logo.svg"
   inkscape:version="1.2 (dc2aeda, 2022-05-15)"
   inkscape:export-filename="2.svg"
   inkscape:export-xdpi="96"
   inkscape:export-ydpi="96"
   xmlns:inkscape="http://www.inkscape.org/namespaces/inkscape"
   xmlns:sodipodi="http://sodipodi.sourceforge.net/DTD/sodipodi-0.dtd"
   xmlns="http://www.w3.org/2000/svg"
   xmlns:svg="http://www.w3.org/2000/svg"><sodipodi:namedview
     id="namedview30955"
     pagecolor="#505050"
     bordercolor="#eeeeee"
     borderopacity="1"
     inkscape:showpageshadow="0"
     inkscape:pageopacity="0"
     inkscape:pagecheckerboard="0"
     inkscape:deskcolor="#505050"
     inkscape:document-units="px"
     showgrid="false"
     inkscape:zoom="10.840667"
     inkscape:cx="17.203739"
     inkscape:cy="23.153558"
     inkscape:window-width="1920"
     inkscape:window-height="962"
     inkscape:window-x="38"
     inkscape:window-y="25"
     inkscape:window-maximized="0"
     inkscape:current-layer="layer1" /><defs
     id="defs3364"><filter
       style="color-interpolation-filters:sRGB"
       id="filter13710"
       x="-0.2386356"
       y="-0.2291534"
       width="1.4772712"
       height="1.4583068"><feGaussianBlur
         stdDeviation="0.51555851"
         id="feGaussianBlur13712" /></filter><filter
       style="color-interpolation-filters:sRGB"
       id="filter13714"
       x="-0.17591155"
       y="-0.029448672"
       width="1.3518231"
       height="1.0588973"><feGaussianBlur
         stdDeviation="0.77781007"
         id="feGaussianBlur13716" /></filter></defs><g
     id="layer1"
     transform="matrix(3.050941,0,0,3.8128371,-71.593986,-242.70139)"
     style="stroke-width:2.93197;stroke-dasharray:none"><ellipse
       cx="29.935316"
       cy="65.682487"
       rx="4.8851743"
       ry="1.499501"
       id="ellipse15200"
       style="mix-blend-mode:normal;fill:#13b9f6;fill-opacity:0.796078;stroke-width:2.93197;stroke-dasharray:none" /><path
       d="m 29.870157,74.648979 c -2.153442,-0.03099 -3.962664,-0.443415 -4.64009,-1.006025 l -0.0028,1.101382 c 0,0.829612 2.183733,1.501885 4.879666,1.501885 0.514954,0 1.010631,-0.02384 1.476016,-0.06913 -0.704963,-0.381431 -1.294266,-0.905899 -1.712838,-1.528108 z"
       id="path15198"
       style="mix-blend-mode:normal;fill:#13b9f6;fill-opacity:0.796078;stroke-width:2.93197;stroke-dasharray:none" /><path
       d="m 25.230094,71.429004 -0.0028,1.168132 c 0.0083,-0.0072 0.01653,-0.01431 0.02478,-0.01907 0.05232,0.753327 1.911111,1.370767 4.298623,1.458974 -0.239576,-0.510164 -0.369004,-1.065623 -0.369004,-1.64969 v -0.0023 c -1.822992,-0.09777 -3.318285,-0.464902 -3.951649,-0.955994 z"
       id="path15196"
       style="mix-blend-mode:normal;fill:#13b9f6;fill-opacity:0.796078;stroke-width:2.93197;stroke-dasharray:none" /><path
       d="m 25.152497,69.113979 -0.0028,1.227731 c 0.178995,0.681809 1.839513,1.234884 3.990202,1.356466 0.08262,-0.579299 0.297406,-1.125223 0.616842,-1.611547 -2.112135,-0.03099 -3.893819,-0.424341 -4.60429,-0.97265 z"
       id="path15194"
       style="mix-blend-mode:normal;fill:#13b9f6;fill-opacity:0.796078;stroke-width:2.93197;stroke-dasharray:none" /><ellipse
       style="mix-blend-mode:normal;fill:none;fill-opacity:0.796078;stroke:#13b9f6;stroke-width:0.87958988;stroke-dasharray:none;stroke-opacity:0.796078;paint-order:markers stroke fill"
       id="path16430"
       cx="34.479282"
       cy="72.277954"
       ry="3.6855886"
       rx="3.9772727" /><path
       d="m 30.097583,69.428887 c 0.93077,-1.02748 2.376495,-1.687833 4.003969,-1.687833 0.242331,0 0.481909,0.01429 0.718731,0.04291 V 66.84469 c -0.735253,0.572146 -2.640858,0.979801 -4.879665,0.979801 -2.22504,0 -4.125137,-0.402887 -4.868652,-0.97265 v 1.208661 c 0.371758,1.31832 4.973295,1.370767 5.025617,1.368383 z"
       id="path15192-1"
       style="mix-blend-mode:normal;fill:#13b9f6;fill-opacity:0.796078;stroke-width:2.93197;stroke-dasharray:none" /><ellipse
       style="mix-blend-mode:normal;fill:none;fill-opacity:0.7;stroke:#24b0e5;stroke-width:12.4064;stroke-linecap:round;stroke-linejoin:round;stroke-dasharray:none;stroke-opacity:1;paint-order:normal;filter:url(#filter13710)"
       id="path5499"
       cx="145.80284"
       cy="162.31612"
       rx="15.589753"
       ry="16.234846"
       transform="matrix(0.07350004,0,0,0.06838799,24.070498,60.397853)" /><rect
       style="mix-blend-mode:normal;fill:#24b0e5;fill-opacity:1;stroke:none;stroke-width:40.2957;stroke-dasharray:none;stroke-opacity:0.796078;paint-order:stroke markers fill;filter:url(#filter13714)"
       id="rect13708"
       width="10.611835"
       height="63.389759"
       x="177.31448"
       y="74.75956"
       transform="matrix(0.07379484,-0.0285953,0.02573958,0.06176811,17.655235,71.157494)" /></g></svg>
