<?xml version="1.0" encoding="UTF-8" standalone="no"?>
<svg
   id="ic_staking_on"
   width="100"
   height="100"
   viewBox="0 0 100 100"
   version="1.1"
   sodipodi:docname="img-empty-staking-on.svg"
   inkscape:version="1.2 (dc2aeda, 2022-05-15)"
   xmlns:inkscape="http://www.inkscape.org/namespaces/inkscape"
   xmlns:sodipodi="http://sodipodi.sourceforge.net/DTD/sodipodi-0.dtd"
   xmlns="http://www.w3.org/2000/svg"
   xmlns:svg="http://www.w3.org/2000/svg">
  <sodipodi:namedview
     id="namedview16"
     pagecolor="#505050"
     bordercolor="#eeeeee"
     borderopacity="1"
     inkscape:showpageshadow="0"
     inkscape:pageopacity="0"
     inkscape:pagecheckerboard="0"
     inkscape:deskcolor="#505050"
     showgrid="false"
     inkscape:zoom="3.31164"
     inkscape:cx="96.477877"
     inkscape:cy="75.340314"
     inkscape:window-width="1920"
     inkscape:window-height="1027"
     inkscape:window-x="38"
     inkscape:window-y="25"
     inkscape:window-maximized="1"
     inkscape:current-layer="ic_staking_on" />
  <defs
     id="defs4">
    <style
       type="text/css"
       id="style2">
            .cls-1{fill:#d6d6d6}.cls-2{fill:#666}.cls-3{fill:none}
        </style>
    <filter
       style="color-interpolation-filters:sRGB"
       id="filter13714-9"
       x="-0.17591155"
       y="-0.029448672"
       width="1.3518231"
       height="1.0588973">
      <feGaussianBlur
         stdDeviation="0.77781007"
         id="feGaussianBlur13716-0" />
    </filter>
    <filter
       style="color-interpolation-filters:sRGB"
       id="filter13710-3"
       x="-0.22033993"
       y="-0.21158471"
       width="1.4406799"
       height="1.4231694">
      <feGaussianBlur
         stdDeviation="0.51555851"
         id="feGaussianBlur13712-7" />
    </filter>
  </defs>
  <g
     id="Group_9018"
     data-name="Group 9018">
    <g
       id="Group_9016"
       data-name="Group 9016">
      <ellipse
         id="Ellipse_613"
         cx="12"
         cy="4"
         class="cls-1"
         data-name="Ellipse 613"
         rx="12"
         ry="4"
         transform="translate(68 52)" />
      <ellipse
         id="Ellipse_614"
         cx="12"
         cy="4"
         class="cls-1"
         data-name="Ellipse 614"
         rx="12"
         ry="4"
         transform="translate(52 64)" />
      <path
         id="Rectangle_4669"
         d="M0 0h14v14H0z"
         class="cls-1"
         data-name="Rectangle 4669"
         transform="translate(32 24)" />
    </g>
    <g
       id="Group_9017"
       data-name="Group 9017">
      <path
         id="Rectangle_4670"
         d="M0 0h2v4H0z"
         class="cls-2"
         data-name="Rectangle 4670"
         transform="translate(12 60)" />
      <path
         id="Path_18975"
         d="M92.046 57.994A2.767 2.767 0 0 0 93 56c0-3.283-6.54-5-13-5s-13 1.717-13 5a2.767 2.767 0 0 0 .954 1.994 2.573 2.573 0 0 0 0 4 3.171 3.171 0 0 0-.774 1.151q-.58-.052-1.18-.085V39h5V23H52.644A8.993 8.993 0 1 0 39 11.9 8.994 8.994 0 1 0 25.356 23H7v16h5v17h2V39h50v24c-6.46 0-13 1.717-13 5a2.767 2.767 0 0 0 .954 1.994 2.573 2.573 0 0 0 0 4A3.325 3.325 0 0 0 51.226 75H14v-7h-2v9h39.23a3.369 3.369 0 0 0 .724.994 2.573 2.573 0 0 0 0 4 2.573 2.573 0 0 0 0 4A2.768 2.768 0 0 0 51 88c0 3.283 6.54 5 13 5 5.874 0 11.8-1.424 12.826-4.15 1.042.093 2.106.15 3.174.15 6.46 0 13-1.717 13-5a2.768 2.768 0 0 0-.954-2.006 2.573 2.573 0 0 0 0-4 2.573 2.573 0 0 0 0-4 2.573 2.573 0 0 0 0-4 2.573 2.573 0 0 0 0-4 2.573 2.573 0 0 0 0-4 2.573 2.573 0 0 0 0-4zM31 37H9V25h22zm-7-21a7 7 0 0 1 14 0v7h-7a7.008 7.008 0 0 1-7-7zm21 21H33V25h12zm-5-14v-7a7 7 0 1 1 7 7zm7 14V25h22v12H47zm4 39a2.311 2.311 0 0 0 .061.515A2.2 2.2 0 0 1 51 76zm13 15c-7.117 0-11-1.982-11-3 0-.241.247-.539.678-.849C56.179 88.37 60.1 89 64 89s7.821-.63 10.322-1.849c.431.31.678.608.678.849 0 1.018-3.883 3-11 3zm0-4c-7.117 0-11-1.982-11-3 0-.241.247-.539.678-.849C56.179 84.37 60.1 85 64 85s7.821-.63 10.322-1.849c.431.31.678.608.678.849 0 1.018-3.883 3-11 3zm0-4c-7.117 0-11-1.982-11-3 0-.241.247-.539.678-.849C56.179 80.37 60.1 81 64 81s7.821-.63 10.322-1.849c.431.31.678.608.678.849 0 1.018-3.883 3-11 3zm0-4c-7.117 0-11-1.982-11-3 0-.241.247-.539.678-.849C56.179 76.37 60.1 77 64 77s7.821-.63 10.322-1.849c.431.31.678.608.678.849 0 1.018-3.883 3-11 3zm0-4c-7.117 0-11-1.982-11-3 0-.241.247-.539.678-.849C56.179 72.37 60.1 73 64 73s7.821-.63 10.322-1.849c.431.31.678.608.678.849 0 1.018-3.883 3-11 3zm0-4c-7.117 0-11-1.982-11-3s3.883-3 11-3 11 1.982 11 3-3.883 3-11 3zm16 16c-1.207 0-2.3-.068-3.313-.168a3.446 3.446 0 0 0-.641-.838 3.219 3.219 0 0 0 .781-1.151c1.041.1 2.1.157 3.173.157 3.9 0 7.821-.63 10.322-1.849.431.31.678.608.678.849 0 1.018-3.883 3-11 3zm0-4c-1.207 0-2.3-.068-3.313-.168a3.446 3.446 0 0 0-.641-.838 3.219 3.219 0 0 0 .781-1.151c1.041.1 2.1.157 3.173.157 3.9 0 7.821-.63 10.322-1.849.431.31.678.608.678.849 0 1.018-3.883 3-11 3zm0-4c-1.207 0-2.3-.068-3.313-.168a3.446 3.446 0 0 0-.641-.838 3.219 3.219 0 0 0 .781-1.151c1.041.1 2.1.157 3.173.157 3.9 0 7.821-.63 10.322-1.849.431.31.678.608.678.849 0 1.018-3.883 3-11 3zm0-4c-1.207 0-2.3-.068-3.313-.168a3.446 3.446 0 0 0-.641-.838 3.219 3.219 0 0 0 .781-1.151c1.041.1 2.1.157 3.173.157 3.9 0 7.821-.63 10.322-1.849.431.31.678.608.678.849 0 1.018-3.883 3-11 3zm0-4c-1.207 0-2.3-.068-3.313-.168a3.446 3.446 0 0 0-.641-.838 3.219 3.219 0 0 0 .781-1.151c1.041.1 2.1.157 3.173.157 3.9 0 7.821-.63 10.322-1.849.431.31.678.608.678.849 0 1.018-3.883 3-11 3zm0-4c-1.2 0-2.287-.067-3.3-.166-.621-1.162-2.175-2.062-4.213-2.7A31.139 31.139 0 0 0 80 65c3.9 0 7.821-.63 10.322-1.849.431.31.678.608.678.849 0 1.018-3.883 3-11 3zm-10.632-3.583a2.722 2.722 0 0 1 .31-.266 13.563 13.563 0 0 0 1.826.7 26.483 26.483 0 0 0-2.136-.434zM80 63c-7.117 0-11-1.982-11-3 0-.241.247-.539.678-.849C72.179 60.37 76.1 61 80 61s7.821-.63 10.322-1.849c.431.31.678.608.678.849 0 1.018-3.883 3-11 3zm0-4c-7.117 0-11-1.982-11-3s3.883-3 11-3 11 1.982 11 3-3.883 3-11 3z"
         class="cls-2"
         data-name="Path 18975" />
    </g>
  </g>
  <path
     id="Rectangle_4672"
     d="M0 0h100v100H0z"
     class="cls-3"
     data-name="Rectangle 4672" />
  <path
     id="Rectangle_4668"
     d="M 91.923637,34.550252 H 191.92364 V 134.55025 H 91.923637 Z"
     class="cls-3"
     data-name="Rectangle 4668"
     style="fill:none" />
  <ellipse
     style="mix-blend-mode:normal;fill:none;fill-opacity:0.7;stroke:#d6d6d6;stroke-width:11.2655;stroke-linecap:round;stroke-linejoin:round;stroke-dasharray:none;stroke-opacity:1;paint-order:normal;filter:url(#filter13710-3)"
     id="path5499-2"
     cx="145.80284"
     cy="162.31612"
     rx="15.589753"
     ry="16.234846"
     transform="matrix(0.32755577,0,0,0.38488417,-7.5764675,-10.303346)" />
  <rect
     style="mix-blend-mode:normal;fill:#d6d6d6;fill-opacity:1;stroke:none;stroke-width:27.4426;stroke-dasharray:none;stroke-opacity:0.796078;paint-order:stroke markers fill;filter:url(#filter13714-9)"
     id="rect13708-3"
     width="10.611835"
     height="63.389759"
     x="177.31448"
     y="74.75956"
     transform="matrix(0.32886954,-0.16093291,0.11470944,0.34762781,-36.166334,50.251371)" />
</svg>
